<svg width="128" height="128" viewBox="-128 0 256 128" fill="none" xmlns="http://www.w3.org/2000/svg">
<g clip-path="url(#clip0_1_2)">
<rect width="128" height="128" rx="16" fill="white"/>
<path d="M24.3262 66.2773C23.9629 65.9375 23.8867 65.6211 24.0977 65.3281L24.8887 64.2207C25.1465 63.8691 25.5273 63.8867 26.0312 64.2734C26.7227 64.8008 27.4902 65.2227 28.334 65.5391C29.1895 65.8555 30.1621 66.0137 31.252 66.0137C31.8965 66.0137 32.4707 65.9375 32.9746 65.7852C33.4785 65.6211 33.918 65.3223 34.293 64.8887C34.6797 64.4551 34.873 63.875 34.873 63.1484C34.873 62.7266 34.7793 62.3281 34.5918 61.9531C34.416 61.5781 34.1348 61.2793 33.748 61.0566C33.373 60.8223 33.0039 60.6406 32.6406 60.5117C32.043 60.2891 31.4453 60.1074 30.8477 59.9668C30.2617 59.8145 29.4883 59.5859 28.5273 59.2812C27.8828 59.082 27.2734 58.8008 26.6992 58.4375C26.125 58.0625 25.6211 57.5586 25.1875 56.9258C24.7656 56.293 24.5547 55.4199 24.5547 54.3066C24.5547 53.1699 24.9004 52.1914 25.5918 51.3711C26.2832 50.5508 27.1504 49.9941 28.1934 49.7012C29.2363 49.3965 30.25 49.2441 31.2344 49.2441C32.6875 49.2441 33.8535 49.4141 34.7324 49.7539C35.623 50.082 36.3906 50.4746 37.0352 50.9316C37.4102 51.2012 37.4629 51.5117 37.1934 51.8633L36.4023 52.918C36.1562 53.2578 35.7754 53.2461 35.2598 52.8828C34.8262 52.5781 34.2109 52.291 33.4141 52.0215C32.6172 51.752 31.9199 51.6172 31.3223 51.6172C30.584 51.6172 29.9512 51.6992 29.4238 51.8633C28.8965 52.0273 28.4688 52.3086 28.1406 52.707C27.8125 53.1055 27.6484 53.5742 27.6484 54.1133C27.6484 54.5234 27.7129 54.8926 27.8418 55.2207C27.9707 55.5371 28.2109 55.8301 28.5625 56.0996C28.9141 56.3691 29.4062 56.5859 30.0391 56.75C31.0234 57.0078 31.9199 57.2422 32.7285 57.4531C33.5488 57.6641 34.2871 57.9219 34.9434 58.2266C35.7988 58.625 36.4551 59.0645 36.9121 59.5449C37.3809 60.0254 37.7031 60.5469 37.8789 61.1094C38.0547 61.6602 38.1426 62.2754 38.1426 62.9551C38.1426 64.209 37.7676 65.2695 37.0176 66.1367C36.2793 67.0039 35.4531 67.584 34.5391 67.877C33.625 68.1582 32.5234 68.2988 31.2344 68.2988C29.4883 68.2988 27.9883 68.0527 26.7344 67.5605C25.4922 67.0566 24.6895 66.6289 24.3262 66.2773ZM40.6387 58.7715C40.6387 56.252 41.248 54.0371 42.4668 52.127C43.6855 50.2051 45.4668 49.2441 47.8105 49.2441C49.1582 49.2441 50.2363 49.4668 51.0449 49.9121C51.8535 50.3574 52.5801 50.9668 53.2246 51.7402H53.2598C53.2363 51.3887 53.2246 51.0312 53.2246 50.668V42.8457C53.2246 42.3184 53.4883 42.0547 54.0156 42.0547H55.5273C56.0547 42.0547 56.3184 42.3184 56.3184 42.8457V67.209C56.3184 67.7363 56.0547 68 55.5273 68H54.0508C53.6289 68 53.4004 67.7363 53.3652 67.209L53.2598 65.8027H53.2246C52.5801 66.5762 51.8535 67.1855 51.0449 67.6309C50.2363 68.0762 49.1582 68.2988 47.8105 68.2988C45.4668 68.2988 43.6855 67.3438 42.4668 65.4336C41.248 63.5117 40.6387 61.291 40.6387 58.7715ZM43.9082 58.7715C43.9082 60.9277 44.2773 62.6738 45.0156 64.0098C45.7656 65.3457 47.0312 66.0137 48.8125 66.0137C50.0781 66.0137 51.127 65.5859 51.959 64.7305C52.8027 63.8633 53.2246 62.5508 53.2246 60.793V56.75C53.2246 54.9922 52.8027 53.6855 51.959 52.8301C51.127 51.9629 50.0781 51.5293 48.8125 51.5293C47.0312 51.5293 45.7656 52.1973 45.0156 53.5332C44.2773 54.8691 43.9082 56.6152 43.9082 58.7715ZM62.1191 68C61.5918 68 61.3281 67.7363 61.3281 67.209V50.334C61.3281 49.8066 61.5918 49.543 62.1191 49.543H63.5957C64.123 49.543 64.3867 49.8066 64.3867 50.334V51.7402H64.457C65.2188 50.8965 66.0449 50.2695 66.9355 49.8594C67.8262 49.4492 68.6816 49.2441 69.502 49.2441C71.0137 49.2441 72.1738 49.625 72.9824 50.3867C73.8027 51.1367 74.3301 51.8926 74.5645 52.6543H74.6348C75.2793 51.6934 76.0938 50.8848 77.0781 50.2285C78.0625 49.5723 79.1113 49.2441 80.2246 49.2441C82.0879 49.2441 83.4941 49.8477 84.4434 51.0547C85.3926 52.25 85.8672 53.8906 85.8672 55.9766V67.209C85.8672 67.7363 85.6035 68 85.0762 68H83.5645C83.0371 68 82.7734 67.7363 82.7734 67.209V56.9961C82.7734 54.6992 82.4863 53.2168 81.9121 52.5488C81.3379 51.8691 80.4531 51.5293 79.2578 51.5293C78.0859 51.5293 77.1074 52.0332 76.3223 53.041C75.5371 54.0371 75.1445 55.543 75.1445 57.5586V67.209C75.1445 67.7363 74.8809 68 74.3535 68H72.8418C72.3145 68 72.0508 67.7363 72.0508 67.209V56.9961C72.0508 54.6992 71.7637 53.2168 71.1895 52.5488C70.6152 51.8691 69.7305 51.5293 68.5352 51.5293C67.3633 51.5293 66.3848 51.9863 65.5996 52.9004C64.8145 53.8027 64.4219 55.3555 64.4219 57.5586V67.209C64.4219 67.7363 64.1582 68 63.6309 68H62.1191ZM90.3848 68C89.5996 68 89.4473 67.6543 89.9277 66.9629L95.9219 58.2793L90.5957 50.5801C90.1152 49.8887 90.2676 49.543 91.0527 49.543H92.7754C93.1973 49.543 93.5078 49.6953 93.707 50L97.5918 56.1172L101.459 50C101.646 49.6953 101.957 49.543 102.391 49.543H104.131C104.916 49.543 105.068 49.8887 104.588 50.5801L99.2617 58.2793L105.256 66.9629C105.736 67.6543 105.584 68 104.799 68H103.076C102.654 68 102.344 67.8477 102.145 67.543L97.5918 60.4238L93.0391 67.543C92.8398 67.8477 92.5293 68 92.1074 68H90.3848Z" fill="#262626"/>
<path d="M22.6787 78.6421C22.6787 77.3416 22.9997 76.2681 23.6416 75.4214C24.2891 74.5692 25.2769 74.1431 26.605 74.1431C27.5015 74.1431 28.1849 74.3035 28.6553 74.6245C29.1312 74.9399 29.4743 75.2637 29.6846 75.5957C29.8008 75.7783 29.7759 75.925 29.6099 76.0356L29.0869 76.376C28.9209 76.4922 28.7549 76.4175 28.5889 76.1519C28.4284 75.8973 28.2015 75.6787 27.9082 75.4961C27.6204 75.3135 27.186 75.2222 26.605 75.2222C25.8468 75.2222 25.2603 75.5016 24.8452 76.0605C24.4302 76.6195 24.2227 77.48 24.2227 78.6421C24.2227 79.8042 24.4302 80.6647 24.8452 81.2236C25.2603 81.7826 25.8468 82.062 26.605 82.062C27.2192 82.062 27.6896 81.9458 28.0161 81.7134C28.3426 81.4754 28.5806 81.2181 28.73 80.9414C28.8739 80.6813 29.0371 80.6066 29.2197 80.7173L29.7759 81.0493C29.9419 81.1489 29.9668 81.2983 29.8506 81.4976C29.7122 81.7355 29.3968 82.0703 28.9043 82.502C28.4173 82.9281 27.6509 83.1411 26.605 83.1411C25.2769 83.1411 24.2891 82.7178 23.6416 81.8711C22.9997 81.0189 22.6787 79.9425 22.6787 78.6421ZM31.1953 78.6421C31.1953 77.3416 31.5384 76.2681 32.2246 75.4214C32.9163 74.5692 33.9263 74.1431 35.2544 74.1431C36.5825 74.1431 37.5897 74.5692 38.2759 75.4214C38.9676 76.2681 39.3135 77.3416 39.3135 78.6421C39.3135 79.9425 38.9676 81.0189 38.2759 81.8711C37.5897 82.7178 36.5825 83.1411 35.2544 83.1411C33.9263 83.1411 32.9163 82.7178 32.2246 81.8711C31.5384 81.0189 31.1953 79.9425 31.1953 78.6421ZM32.7393 78.6421C32.7393 79.8042 32.9689 80.6647 33.4282 81.2236C33.8875 81.7826 34.4963 82.062 35.2544 82.062C36.0125 82.062 36.6213 81.7826 37.0806 81.2236C37.5399 80.6647 37.7695 79.8042 37.7695 78.6421C37.7695 77.48 37.5399 76.6195 37.0806 76.0605C36.6213 75.5016 36.0125 75.2222 35.2544 75.2222C34.4963 75.2222 33.8875 75.5016 33.4282 76.0605C32.9689 76.6195 32.7393 77.48 32.7393 78.6421ZM41.5713 83C41.3223 83 41.1978 82.8755 41.1978 82.6265V74.6577C41.1978 74.4087 41.3223 74.2842 41.5713 74.2842H42.2686C42.5176 74.2842 42.6421 74.4087 42.6421 74.6577V75.3218H42.6753C43.035 74.9233 43.4224 74.6273 43.8374 74.4336C44.2524 74.2399 44.7699 74.1431 45.3896 74.1431C46.3968 74.1431 47.119 74.4281 47.5562 74.998C47.9989 75.5625 48.2202 76.3372 48.2202 77.3223V82.6265C48.2202 82.8755 48.0957 83 47.8467 83H47.1328C46.8838 83 46.7593 82.8755 46.7593 82.6265V77.7207C46.7593 76.6361 46.5794 75.9499 46.2197 75.6621C45.86 75.3688 45.4035 75.2222 44.8501 75.2222C44.1307 75.2222 43.5856 75.438 43.2148 75.8696C42.8441 76.2957 42.6587 77.029 42.6587 78.0693V82.6265C42.6587 82.8755 42.5342 83 42.2852 83H41.5713ZM50.9346 83C50.6855 83 50.561 82.8755 50.561 82.6265V74.6577C50.561 74.4087 50.6855 74.2842 50.9346 74.2842H51.6318C51.8809 74.2842 52.0054 74.4087 52.0054 74.6577V75.3218H52.0386C52.3983 74.9233 52.7856 74.6273 53.2007 74.4336C53.6157 74.2399 54.1331 74.1431 54.7529 74.1431C55.7601 74.1431 56.4823 74.4281 56.9194 74.998C57.3621 75.5625 57.5835 76.3372 57.5835 77.3223V82.6265C57.5835 82.8755 57.459 83 57.21 83H56.4961C56.2471 83 56.1226 82.8755 56.1226 82.6265V77.7207C56.1226 76.6361 55.9427 75.9499 55.583 75.6621C55.2233 75.3688 54.7668 75.2222 54.2134 75.2222C53.494 75.2222 52.9489 75.438 52.5781 75.8696C52.2074 76.2957 52.022 77.029 52.022 78.0693V82.6265C52.022 82.8755 51.8975 83 51.6484 83H50.9346ZM59.4512 78.6421C59.4512 77.2697 59.7943 76.1768 60.4805 75.3633C61.1667 74.5498 62.1489 74.1431 63.4272 74.1431C64.4897 74.1431 65.3696 74.5166 66.0669 75.2637C66.7697 76.0052 67.1211 77.1922 67.1211 78.8247C67.1211 79.0737 67.0076 79.1982 66.7808 79.1982H60.9951C61.0892 80.2663 61.377 81.0106 61.8584 81.4312C62.3398 81.8462 62.8849 82.0537 63.4937 82.0537C64.1356 82.0537 64.6281 81.9458 64.9712 81.73C65.3143 81.5142 65.5661 81.3011 65.7266 81.0908C65.9036 80.8584 66.0752 80.8141 66.2412 80.958L66.731 81.3813C66.8582 81.492 66.8582 81.6442 66.731 81.8379C66.6258 81.9984 66.3242 82.2557 65.8262 82.6099C65.3337 82.964 64.5562 83.1411 63.4937 83.1411C62.1102 83.1411 61.0892 82.7344 60.4307 81.9209C59.7777 81.1074 59.4512 80.0145 59.4512 78.6421ZM60.9619 78.1191H65.6519C65.6297 77.3444 65.4305 76.6665 65.0542 76.0854C64.6779 75.4989 64.1245 75.2056 63.394 75.2056C62.7521 75.2056 62.207 75.4214 61.7588 75.853C61.3105 76.2791 61.0449 77.0345 60.9619 78.1191ZM68.5654 78.6421C68.5654 77.3416 68.8864 76.2681 69.5283 75.4214C70.1758 74.5692 71.1636 74.1431 72.4917 74.1431C73.3882 74.1431 74.0716 74.3035 74.542 74.6245C75.0179 74.9399 75.361 75.2637 75.5713 75.5957C75.6875 75.7783 75.6626 75.925 75.4966 76.0356L74.9736 76.376C74.8076 76.4922 74.6416 76.4175 74.4756 76.1519C74.3151 75.8973 74.0882 75.6787 73.7949 75.4961C73.5072 75.3135 73.0728 75.2222 72.4917 75.2222C71.7336 75.2222 71.147 75.5016 70.7319 76.0605C70.3169 76.6195 70.1094 77.48 70.1094 78.6421C70.1094 79.8042 70.3169 80.6647 70.7319 81.2236C71.147 81.7826 71.7336 82.062 72.4917 82.062C73.106 82.062 73.5763 81.9458 73.9028 81.7134C74.2293 81.4754 74.4673 81.2181 74.6167 80.9414C74.7606 80.6813 74.9238 80.6066 75.1064 80.7173L75.6626 81.0493C75.8286 81.1489 75.8535 81.2983 75.7373 81.4976C75.599 81.7355 75.2835 82.0703 74.791 82.502C74.304 82.9281 73.5376 83.1411 72.4917 83.1411C71.1636 83.1411 70.1758 82.7178 69.5283 81.8711C68.8864 81.0189 68.5654 79.9425 68.5654 78.6421ZM77.1318 75.3799C76.8828 75.3799 76.7583 75.283 76.7583 75.0894V74.5747C76.7583 74.381 76.8828 74.2842 77.1318 74.2842H78.1113V73.5371C78.1113 73.4264 78.139 73.3213 78.1943 73.2217L78.7754 72.1675C78.8805 71.9738 78.9663 71.877 79.0327 71.877H79.3232C79.4893 71.877 79.5723 71.9738 79.5723 72.1675V74.2842H81.3403C81.5894 74.2842 81.7139 74.381 81.7139 74.5747V75.0894C81.7139 75.283 81.5894 75.3799 81.3403 75.3799H79.5723V80.6675C79.5723 81.2485 79.658 81.6276 79.8296 81.8047C80.0067 81.9762 80.217 82.062 80.4604 82.062C80.6486 82.062 80.8727 82.0067 81.1328 81.896C81.3984 81.7853 81.5811 81.6912 81.6807 81.6138C81.7803 81.5363 81.8577 81.5612 81.9131 81.6885L82.187 82.3276C82.2313 82.4383 82.1981 82.5269 82.0874 82.5933C81.8716 82.7205 81.5562 82.8451 81.1411 82.9668C80.7261 83.083 80.311 83.1411 79.896 83.1411C79.3205 83.1411 78.8778 82.9336 78.5679 82.5186C78.2635 82.1035 78.1113 81.5169 78.1113 80.7588V75.3799H77.1318ZM83.374 78.6421C83.374 77.3416 83.7171 76.2681 84.4033 75.4214C85.0951 74.5692 86.105 74.1431 87.4331 74.1431C88.7612 74.1431 89.7684 74.5692 90.4546 75.4214C91.1463 76.2681 91.4922 77.3416 91.4922 78.6421C91.4922 79.9425 91.1463 81.0189 90.4546 81.8711C89.7684 82.7178 88.7612 83.1411 87.4331 83.1411C86.105 83.1411 85.0951 82.7178 84.4033 81.8711C83.7171 81.0189 83.374 79.9425 83.374 78.6421ZM84.918 78.6421C84.918 79.8042 85.1476 80.6647 85.6069 81.2236C86.0662 81.7826 86.675 82.062 87.4331 82.062C88.1912 82.062 88.8 81.7826 89.2593 81.2236C89.7186 80.6647 89.9482 79.8042 89.9482 78.6421C89.9482 77.48 89.7186 76.6195 89.2593 76.0605C88.8 75.5016 88.1912 75.2222 87.4331 75.2222C86.675 75.2222 86.0662 75.5016 85.6069 76.0605C85.1476 76.6195 84.918 77.48 84.918 78.6421ZM93.75 83C93.501 83 93.3765 82.8755 93.3765 82.6265V74.6577C93.3765 74.4087 93.501 74.2842 93.75 74.2842H94.4473C94.6963 74.2842 94.8208 74.4087 94.8208 74.6577V75.6538H94.854C95.1196 75.1558 95.4323 74.7795 95.792 74.5249C96.1517 74.2703 96.5999 74.1431 97.1367 74.1431C97.4909 74.1431 97.7399 74.1735 97.8838 74.2344C98.0111 74.2842 98.0581 74.3672 98.0249 74.4834L97.834 75.1641C97.8063 75.2637 97.7344 75.3024 97.6182 75.2803C97.4245 75.2415 97.2419 75.2222 97.0703 75.2222C96.4229 75.2222 95.8888 75.5155 95.4683 76.1021C95.0477 76.6831 94.8374 77.4772 94.8374 78.4844V82.6265C94.8374 82.8755 94.7129 83 94.4639 83H93.75ZM99.0293 82.1865C98.8577 82.026 98.8218 81.8766 98.9214 81.7383L99.2949 81.2153C99.4167 81.0493 99.5965 81.0576 99.8345 81.2402C100.161 81.4893 100.523 81.6885 100.922 81.8379C101.326 81.9873 101.785 82.062 102.3 82.062C102.604 82.062 102.875 82.026 103.113 81.9541C103.351 81.8766 103.559 81.7355 103.736 81.5308C103.918 81.326 104.01 81.0521 104.01 80.709C104.01 80.5098 103.965 80.3216 103.877 80.1445C103.794 79.9674 103.661 79.8263 103.479 79.7212C103.301 79.6105 103.127 79.5247 102.956 79.4639C102.673 79.3587 102.391 79.2729 102.109 79.2065C101.832 79.1346 101.467 79.0267 101.013 78.8828C100.709 78.7887 100.421 78.6559 100.15 78.4844C99.8787 78.3073 99.6408 78.0693 99.436 77.7705C99.2368 77.4717 99.1372 77.0594 99.1372 76.5337C99.1372 75.9969 99.3005 75.5348 99.627 75.1475C99.9535 74.7601 100.363 74.4972 100.855 74.3589C101.348 74.215 101.827 74.1431 102.292 74.1431C102.978 74.1431 103.528 74.2233 103.943 74.3838C104.364 74.5387 104.726 74.7241 105.031 74.9399C105.208 75.0672 105.233 75.2139 105.105 75.3799L104.732 75.8779C104.616 76.0384 104.436 76.0329 104.192 75.8613C103.988 75.7174 103.697 75.5819 103.321 75.4546C102.944 75.3273 102.615 75.2637 102.333 75.2637C101.984 75.2637 101.686 75.3024 101.437 75.3799C101.188 75.4574 100.986 75.5902 100.831 75.7783C100.676 75.9665 100.598 76.1878 100.598 76.4424C100.598 76.6361 100.629 76.8104 100.689 76.9653C100.75 77.1147 100.864 77.2531 101.03 77.3804C101.196 77.5076 101.428 77.61 101.727 77.6875C102.192 77.8092 102.615 77.9199 102.997 78.0195C103.384 78.1191 103.733 78.2409 104.043 78.3848C104.447 78.5729 104.757 78.7804 104.973 79.0073C105.194 79.2342 105.346 79.4805 105.429 79.7461C105.512 80.0062 105.554 80.2967 105.554 80.6177C105.554 81.2098 105.377 81.7106 105.022 82.1201C104.674 82.5296 104.284 82.8035 103.852 82.9419C103.42 83.0747 102.9 83.1411 102.292 83.1411C101.467 83.1411 100.759 83.0249 100.167 82.7925C99.5799 82.5545 99.2008 82.3525 99.0293 82.1865Z" fill="#262626"/>
<path d="M20 30C20 30 30.7991 26 38 26C45.2009 26 48.7991 30 56 30C63.2009 30 66.7991 26 74 26C81.2009 26 84.8016 28.1894 92 28" stroke="#7AB7FF" stroke-width="8" stroke-linecap="round"/>
<rect x="103" y="22" width="9" height="2" rx="1" fill="#385475"/>
<rect x="103" y="32" width="9" height="2" rx="1" fill="#385475"/>
<path d="M88 22C88 18.6863 90.6863 16 94 16H102C103.105 16 104 16.8954 104 18V38C104 39.1046 103.105 40 102 40H94C90.6863 40 88 37.3137 88 34V22Z" fill="#6293CC"/>
<path d="M108 98C108 98 97.2009 102 90 102C82.7991 102 79.2009 98 72 98C64.7991 98 61.2009 102 54 102C46.7991 102 43.1984 99.8106 36 100" stroke="#7AB7FF" stroke-width="8" stroke-linecap="round"/>
<rect x="25" y="106" width="9" height="2" rx="1" transform="rotate(-180 25 106)" fill="#385475"/>
<rect x="25" y="96" width="9" height="2" rx="1" transform="rotate(-180 25 96)" fill="#385475"/>
<path d="M40 106C40 109.314 37.3137 112 34 112L26 112C24.8954 112 24 111.105 24 110L24 90C24 88.8954 24.8954 88 26 88L34 88C37.3137 88 40 90.6863 40 94L40 106Z" fill="#6293CC"/>
</g>
<defs>
<clipPath id="clip0_1_2">
<rect width="128" height="128" fill="white"/>
</clipPath>
</defs>
</svg>
